<svg viewBox="0 0 17.727 10.583" height="40" width="67"><path d="M11.755 9.398h.06a3.451 3.451 0 000-6.902c-.3 0-.599.041-.888.121m.887-1.846V-.523m5.599 9.705l-1.122-.647m1.131-5.823l-1.122.647" fill="none" stroke="#000" stroke-width=".706" stroke-linecap="round" stroke-linejoin="round"/><path d="M11.703 9.396a1.726 1.726 0 000-3.45c-.03 0-.059.007-.089.008A4.317 4.317 0 007.39.768a4.291 4.291 0 00-3.432 1.729l-.018-.002a3.45 3.45 0 10-.004 6.901h.004z" fill="none" stroke="#000" stroke-width=".706" stroke-linecap="round" stroke-linejoin="round"/></svg>