<svg viewBox="0 0 26.458 13.229" height="50" width="100"><path d="M15.73 9.782a1.725 1.725 0 000-3.451c-.03 0-.058.007-.088.009a4.304 4.304 0 00-7.657-3.457l-.018-.002a3.451 3.451 0 000 6.9z" fill="none" stroke="#000" stroke-width=".70556" stroke-linecap="round" stroke-linejoin="round"/><path d="M17.414 7.685h2.773a1.295 1.295 0 00.002-2.59h-.002c-.022 0-.043.007-.064.007.042-.213.064-.43.064-.649a3.232 3.232 0 00-3.227-3.238h-.005c-.973 0-1.892.445-2.498 1.206M10.797 11.578l-.238 1.032M13.515 11.578l-.238 1.032" fill="none" stroke="#000" stroke-width=".70556" stroke-linecap="round" stroke-linejoin="round"/></svg>