<svg viewBox="0 0 26.458 18.521" height="70" width="100"><path d="M15.185 10.505a1.725 1.725 0 10.002-3.451h-.002c-.03 0-.058.007-.088.01a4.304 4.304 0 00-7.658-3.458l-.018-.002a3.451 3.451 0 000 6.901z" fill="none" stroke="#000" stroke-width=".70556" stroke-linecap="round" stroke-linejoin="round"/><path d="M16.868 8.408h2.773a1.295 1.295 0 00.003-2.59h-.003c-.021 0-.042.008-.063.008.042-.214.064-.431.063-.65a3.232 3.232 0 00-3.226-3.238h-.005c-.973 0-1.893.445-2.498 1.207M10.252 12.302l-.238 1.03M9.654 14.887l-.238 1.032M13.022 12.825l-.238 1.031M12.424 15.411l-.238 1.031M15.792 12.302l-.238 1.03M15.195 14.887l-.239 1.032" fill="none" stroke="#000" stroke-width=".70556" stroke-linecap="round" stroke-linejoin="round"/></svg>