<svg viewBox="0 0 26.458 18.521" height="70" width="100"><path d="M15.11 12.175a1.726 1.726 0 000-3.45c-.03 0-.059.007-.089.008a4.304 4.304 0 00-7.657-3.457l-.018-.002a3.45 3.45 0 100 6.901z" fill="none" stroke="#000" stroke-width=".70556" stroke-linecap="round" stroke-linejoin="round"/><path d="M16.793 10.078h2.773a1.295 1.295 0 00.003-2.59h-.003c-.021 0-.042.008-.063.008a3.34 3.34 0 00.063-.65 3.233 3.233 0 00-3.225-3.239h-.006c-.973 0-1.893.445-2.498 1.207M7.172 14.135l1.833 1.059M7.172 15.194l1.833-1.059M8.089 15.723v-2.117M11.405 14.135l1.833 1.059M11.405 15.194l1.833-1.059M12.322 15.723v-2.117M15.639 14.135l1.833 1.059M15.639 15.194l1.833-1.059M16.555 15.723v-2.117" fill="none" stroke="#000" stroke-width=".70556" stroke-linecap="round" stroke-linejoin="round"/></svg>