<svg viewBox="0 0 26.458 18.521" height="70" width="100"><path d="M14.91 9.451a1.725 1.725 0 000-3.45c-.03 0-.058.007-.088.008a4.304 4.304 0 00-7.657-3.457l-.018-.002a3.451 3.451 0 000 6.901z" fill="none" stroke="#000" stroke-width=".70556" stroke-linecap="round" stroke-linejoin="round"/><path d="M16.594 7.354h2.773a1.295 1.295 0 00.003-2.59h-.003c-.021 0-.043.008-.064.008.043-.214.064-.431.064-.65A3.232 3.232 0 0016.14.885h-.005c-.973 0-1.892.445-2.497 1.207M10.32 11.327l-.965 1.046.41 1.365-.967 1.047M13.09 11.85l-.965 1.046.41 1.365-.967 1.048M15.86 11.327l-.965 1.046.41 1.365-.967 1.047" fill="none" stroke="#000" stroke-width=".70556" stroke-linecap="round" stroke-linejoin="round"/></svg>