<svg viewBox="0 0 26.458 18.521" height="70" width="100"><path d="M15.286 10.244a1.725 1.725 0 000-3.45c-.03 0-.058.007-.088.009a4.304 4.304 0 00-7.657-3.457l-.018-.003a3.451 3.451 0 000 6.902z" fill="none" stroke="#000" stroke-width=".70556" stroke-linecap="round" stroke-linejoin="round"/><path d="M16.97 8.148h2.773a1.295 1.295 0 00.003-2.59h-.003c-.021 0-.043.007-.064.007.043-.214.064-.43.064-.649a3.232 3.232 0 00-3.227-3.238h-.005c-.973 0-1.892.445-2.497 1.206M10.353 12.041l-.835 3.617M13.467 12.644l-.966 1.046.41 1.365-.967 1.047M15.893 12.041l-.835 3.617" fill="none" stroke="#000" stroke-width=".70556" stroke-linecap="round" stroke-linejoin="round"/></svg>