<?xml version="1.0" encoding="UTF-8" standalone="no"?>
<svg
   xmlns:dc="http://purl.org/dc/elements/1.1/"
   xmlns:cc="http://creativecommons.org/ns#"
   xmlns:rdf="http://www.w3.org/1999/02/22-rdf-syntax-ns#"
   xmlns:svg="http://www.w3.org/2000/svg"
   xmlns="http://www.w3.org/2000/svg"
   xmlns:sodipodi="http://sodipodi.sourceforge.net/DTD/sodipodi-0.dtd"
   xmlns:inkscape="http://www.inkscape.org/namespaces/inkscape"
   sodipodi:docname="clouded-sunny.svg"
   inkscape:version="1.0 (4035a4fb49, 2020-05-01)"
   id="svg6350"
   version="1.1"
   viewBox="0 0 17.727083 10.583333"
   height="40"
   width="67">
  <defs
     id="defs6344" />
  <sodipodi:namedview
     units="px"
     inkscape:window-maximized="0"
     inkscape:window-y="32"
     inkscape:window-x="2885"
     inkscape:window-height="1036"
     inkscape:window-width="943"
     showgrid="false"
     inkscape:document-rotation="0"
     inkscape:current-layer="layer1"
     inkscape:document-units="mm"
     inkscape:cy="88.259547"
     inkscape:cx="38.559401"
     inkscape:zoom="2.8"
     inkscape:pageshadow="2"
     inkscape:pageopacity="0.0"
     borderopacity="1.0"
     bordercolor="#666666"
     pagecolor="#ffffff"
     id="base" />
  <metadata
     id="metadata6347">
    <rdf:RDF>
      <cc:Work
         rdf:about="">
        <dc:format>image/svg+xml</dc:format>
        <dc:type
           rdf:resource="http://purl.org/dc/dcmitype/StillImage" />
        <dc:title></dc:title>
      </cc:Work>
    </rdf:RDF>
  </metadata>
  <g
     id="layer1"
     inkscape:groupmode="layer"
     inkscape:label="Layer 1">
    <g
       inkscape:export-ydpi="96"
       inkscape:export-xdpi="96"
       transform="matrix(0.35277777,0,0,-0.35277777,11.755063,9.3975085)"
       id="g878">
      <path
         id="path880"
         style="fill:none;stroke:#000000;stroke-width:2;stroke-linecap:round;stroke-linejoin:round;stroke-miterlimit:4;stroke-dasharray:none;stroke-opacity:1"
         d="M 0,0 H 0.171 C 5.573,0.055 9.908,4.478 9.854,9.88 9.8,15.206 5.496,19.509 0.171,19.563 -0.68,19.562 -1.527,19.447 -2.348,19.22" />
    </g>
    <g
       inkscape:export-ydpi="96"
       inkscape:export-xdpi="96"
       transform="matrix(0.35277777,0,0,-0.35277777,11.814333,0.77099636)"
       id="g882">
      <path
         id="path884"
         style="fill:none;stroke:#000000;stroke-width:2;stroke-linecap:round;stroke-linejoin:round;stroke-miterlimit:4;stroke-dasharray:none;stroke-opacity:1"
         d="M 0,0 V 3.668" />
    </g>
    <g
       inkscape:export-ydpi="96"
       inkscape:export-xdpi="96"
       transform="matrix(0.35277777,0,0,-0.35277777,17.412953,9.1815025)"
       id="g886">
      <path
         id="path888"
         style="fill:none;stroke:#000000;stroke-width:2;stroke-linecap:round;stroke-linejoin:round;stroke-miterlimit:4;stroke-dasharray:none;stroke-opacity:1"
         d="M 0,0 -3.179,1.834" />
    </g>
    <g
       inkscape:export-ydpi="96"
       inkscape:export-xdpi="96"
       transform="matrix(0.35277777,0,0,-0.35277777,17.421733,2.7119454)"
       id="g890">
      <path
         id="path892"
         style="fill:none;stroke:#000000;stroke-width:2;stroke-linecap:round;stroke-linejoin:round;stroke-miterlimit:4;stroke-dasharray:none;stroke-opacity:1"
         d="M 0,0 -3.179,-1.834" />
    </g>
    <g
       inkscape:export-ydpi="96"
       inkscape:export-xdpi="96"
       transform="matrix(0.35277777,0,0,-0.35277777,11.702533,9.3957775)"
       id="g894">
      <path
         id="path896"
         style="fill:none;stroke:#000000;stroke-width:2;stroke-linecap:round;stroke-linejoin:round;stroke-miterlimit:4;stroke-dasharray:none;stroke-opacity:1"
         d="m 0,0 c 2.701,0 4.891,2.19 4.891,4.891 0,2.701 -2.19,4.89 -4.891,4.89 -0.086,0 -0.166,-0.021 -0.25,-0.025 1.361,6.619 -2.902,13.089 -9.521,14.45 -0.808,0.166 -1.63,0.25 -2.455,0.25 -3.835,-0.009 -7.44,-1.824 -9.73,-4.9 -0.018,0 -0.034,0.005 -0.051,0.005 -5.402,0.003 -9.784,-4.373 -9.787,-9.775 -0.003,-5.402 4.373,-9.784 9.775,-9.787 h 0.012 z" />
    </g>
  </g>
</svg>
